<?xml version="1.0" encoding="UTF-8" standalone="no"?>
<!-- Created with Inkscape (http://www.inkscape.org/) -->

<svg
   xmlns:dc="http://purl.org/dc/elements/1.1/"
   xmlns:cc="http://creativecommons.org/ns#"
   xmlns:rdf="http://www.w3.org/1999/02/22-rdf-syntax-ns#"
   xmlns:svg="http://www.w3.org/2000/svg"
   xmlns="http://www.w3.org/2000/svg"
   xmlns:inkscape="http://www.inkscape.org/namespaces/inkscape"
   version="1.1"
   width="73.491249"
   height="155.09375"
   id="svg2"
   xml:space="preserve"><metadata
     id="metadata8"><rdf:RDF><cc:Work
         rdf:about=""><dc:format>image/svg+xml</dc:format><dc:type
           rdf:resource="http://purl.org/dc/dcmitype/StillImage" /></cc:Work></rdf:RDF></metadata><defs
     id="defs6"><clipPath
       id="clipPath92"><path
         d="m 0,124.075 58.793,0 0,-124.06 -58.793,0 0,124.06 z"
         inkscape:connector-curvature="0"
         id="path94" /></clipPath><clipPath
       id="clipPath108"><path
         d="m 0,124.075 58.793,0 0,-124.06 -58.793,0 0,124.06 z"
         inkscape:connector-curvature="0"
         id="path110" /></clipPath></defs><g
     transform="matrix(1.25,0,0,-1.25,0,155.09375)"
     id="g10"><g
       transform="translate(7.1523,26.063)"
       id="g12"><path
         d="m 0,0 -2.2773,3.979 -1.5752,-1.89 0,-2.089 -0.7979,0 0,7.475 0.7979,0 0,-4.294 3.4853,4.294 0.9766,0 L -1.7422,4.587 0.9453,0 0,0"
         inkscape:connector-curvature="0"
         id="path14"
         style="fill:#231f20;fill-opacity:1;fill-rule:nonzero;stroke:none" /></g><g
       transform="translate(12.509,26.063)"
       id="g16"><path
         d="m 0,0 0,0.578 c -0.368,-0.42 -0.882,-0.641 -1.46,-0.641 -0.556,0 -1.018,0.168 -1.333,0.483 -0.3672,0.357 -0.5244,0.85 -0.5244,1.449 l 0,3.296 0.7559,0 0,-3.181 c 0,-0.913 0.4825,-1.375 1.2595,-1.375 0.777,0 1.291,0.473 1.291,1.375 l 0,3.181 0.756,0 L 0.745,0 0,0"
         inkscape:connector-curvature="0"
         id="path18"
         style="fill:#231f20;fill-opacity:1;fill-rule:nonzero;stroke:none" /></g><g
       transform="translate(18.505,26.063)"
       id="g20"><path
         d="m 0,0 0,3.181 c 0,0.913 -0.493,1.375 -1.27,1.375 -0.778,0 -1.282,-0.473 -1.282,-1.375 l 0,-3.181 -0.756,0 0,5.165 0.756,0 0,-0.567 c 0.368,0.42 0.872,0.63 1.449,0.63 0.557,0 1.008,-0.168 1.323,-0.483 C 0.588,4.388 0.756,3.905 0.756,3.307 L 0.756,0 0,0"
         inkscape:connector-curvature="0"
         id="path22"
         style="fill:#231f20;fill-opacity:1;fill-rule:nonzero;stroke:none" /></g><g
       transform="translate(24.458,26.063)"
       id="g24"><path
         d="m 0,0 0,3.181 c 0,0.913 -0.493,1.375 -1.271,1.375 -0.777,0 -1.281,-0.473 -1.281,-1.375 l 0,-3.181 -0.756,0 0,5.165 0.756,0 0,-0.567 c 0.368,0.42 0.872,0.63 1.449,0.63 0.557,0 1.008,-0.168 1.323,-0.483 C 0.588,4.388 0.756,3.905 0.756,3.307 L 0.756,0 0,0"
         inkscape:connector-curvature="0"
         id="path26"
         style="fill:#231f20;fill-opacity:1;fill-rule:nonzero;stroke:none" /></g><g
       transform="translate(28.732,26)"
       id="g28"><path
         d="m 0,0 c -0.871,0 -1.554,0.199 -2.121,0.745 l 0.504,0.504 c 0.41,-0.43 0.966,-0.598 1.606,-0.598 0.851,0 1.375,0.304 1.375,0.914 0,0.451 -0.262,0.703 -0.86,0.755 l -0.851,0.074 c -1.008,0.084 -1.543,0.535 -1.543,1.385 0,0.945 0.798,1.512 1.9,1.512 0.735,0 1.396,-0.179 1.858,-0.557 L 1.375,4.241 C 1.008,4.524 0.535,4.65 0,4.65 c -0.756,0 -1.155,-0.325 -1.155,-0.85 0,-0.441 0.252,-0.703 0.903,-0.756 L 0.577,2.971 C 1.48,2.887 2.1,2.541 2.1,1.575 2.1,0.577 1.249,0 0,0"
         inkscape:connector-curvature="0"
         id="path30"
         style="fill:#231f20;fill-opacity:1;fill-rule:nonzero;stroke:none" /></g><g
       transform="translate(35.768,26.063)"
       id="g32"><path
         d="m 0,0 -1.639,2.646 -1.007,-1.155 0,-1.491 -0.756,0 0,7.475 0.756,0 0,-4.997 2.33,2.687 0.945,0 L -1.124,3.191 0.934,0 0,0"
         inkscape:connector-curvature="0"
         id="path34"
         style="fill:#231f20;fill-opacity:1;fill-rule:nonzero;stroke:none" /></g><g
       transform="translate(40.976,28.446)"
       id="g36"><path
         d="m 0,0 -1.449,0 c -0.777,0 -1.155,-0.315 -1.155,-0.914 0,-0.598 0.368,-0.881 1.187,-0.881 0.44,0 0.829,0.031 1.154,0.346 C -0.084,-1.281 0,-0.987 0,-0.557 L 0,0 z m 0,-2.383 0,0.493 c -0.42,-0.42 -0.798,-0.556 -1.491,-0.556 -0.714,0 -1.134,0.136 -1.459,0.472 -0.252,0.252 -0.389,0.641 -0.389,1.05 0,0.903 0.63,1.49 1.785,1.49 L 0,0.566 0,1.06 c 0,0.756 -0.378,1.134 -1.323,1.134 -0.661,0 -0.997,-0.158 -1.302,-0.588 L -3.14,2.078 c 0.463,0.599 0.988,0.767 1.828,0.767 1.385,0 2.068,-0.599 2.068,-1.722 l 0,-3.506 -0.756,0"
         inkscape:connector-curvature="0"
         id="path38"
         style="fill:#231f20;fill-opacity:1;fill-rule:nonzero;stroke:none" /></g><g
       transform="translate(45.678,30.619)"
       id="g40"><path
         d="m 0,0 c -1.123,0 -1.301,-0.966 -1.301,-1.974 0,-1.007 0.178,-1.973 1.301,-1.973 1.124,0 1.292,0.966 1.292,1.973 C 1.292,-0.966 1.124,0 0,0 z M 1.418,-4.168 C 1.145,-4.44 0.683,-4.619 0.158,-4.619 c -0.567,0 -1.039,0.137 -1.459,0.672 l 0,-2.919 -0.756,0 0,7.475 0.756,0 0,-0.609 c 0.42,0.546 0.892,0.672 1.459,0.672 0.525,0 0.987,-0.179 1.26,-0.451 0.524,-0.526 0.63,-1.386 0.63,-2.195 0,-0.808 -0.106,-1.669 -0.63,-2.194"
         inkscape:connector-curvature="0"
         id="path42"
         style="fill:#231f20;fill-opacity:1;fill-rule:nonzero;stroke:none" /></g><g
       transform="translate(3.2891,17.619)"
       id="g44"><path
         d="m 0,0 0,-4.556 -0.7559,0 0,4.556 -0.6611,0 0,0.577 0.6611,0 0,0.977 c 0,0.766 0.4307,1.385 1.3125,1.385 l 0.5459,0 0,-0.65 -0.4091,0 C 0.2109,2.289 0,2.005 0,1.533 l 0,-0.956 1.1025,0 L 1.1025,0 0,0"
         inkscape:connector-curvature="0"
         id="path46"
         style="fill:#231f20;fill-opacity:1;fill-rule:nonzero;stroke:none" /></g><g
       transform="translate(8.2969,17.241)"
       id="g48"><path
         d="m 0,0 c -0.2412,0.241 -0.5771,0.378 -0.9443,0.378 -0.3682,0 -0.6934,-0.137 -0.9346,-0.378 -0.3779,-0.378 -0.4199,-1.019 -0.4199,-1.596 0,-0.577 0.042,-1.217 0.4199,-1.595 0.2412,-0.242 0.5664,-0.378 0.9346,-0.378 0.3672,0 0.7031,0.136 0.9443,0.378 0.3779,0.378 0.4102,1.018 0.4102,1.595 C 0.4102,-1.019 0.3779,-0.378 0,0 z m 0.5352,-3.653 c -0.3565,-0.357 -0.8497,-0.588 -1.4795,-0.588 -0.6299,0 -1.1241,0.231 -1.4805,0.588 -0.5244,0.535 -0.6299,1.259 -0.6299,2.057 0,0.798 0.1055,1.523 0.6299,2.058 0.3564,0.357 0.8506,0.588 1.4805,0.588 0.6298,0 1.123,-0.231 1.4795,-0.588 0.5253,-0.535 0.6308,-1.26 0.6308,-2.058 0,-0.798 -0.1055,-1.522 -0.6308,-2.057"
         inkscape:connector-curvature="0"
         id="path50"
         style="fill:#231f20;fill-opacity:1;fill-rule:nonzero;stroke:none" /></g><g
       transform="translate(14.021,17.241)"
       id="g52"><path
         d="m 0,0 c -0.284,0.283 -0.493,0.378 -0.893,0.378 -0.755,0 -1.239,-0.599 -1.239,-1.386 l 0,-3.17 -0.756,0 0,5.165 0.756,0 0,-0.63 c 0.284,0.43 0.851,0.693 1.449,0.693 0.494,0 0.871,-0.115 1.239,-0.483 L 0,0"
         inkscape:connector-curvature="0"
         id="path54"
         style="fill:#231f20;fill-opacity:1;fill-rule:nonzero;stroke:none" /></g><g
       transform="translate(21.316,16.874)"
       id="g56"><path
         d="M 0,0 C -0.199,0.472 -0.661,0.776 -1.207,0.776 -1.753,0.776 -2.215,0.472 -2.414,0 -2.53,-0.284 -2.551,-0.442 -2.572,-0.862 l 2.729,0 C 0.137,-0.442 0.115,-0.284 0,0 z m -2.572,-1.428 c 0,-1.134 0.535,-1.785 1.522,-1.785 0.599,0 0.944,0.179 1.355,0.588 l 0.513,-0.451 c -0.524,-0.525 -1.007,-0.798 -1.888,-0.798 -1.366,0 -2.258,0.819 -2.258,2.645 0,1.669 0.808,2.646 2.121,2.646 1.333,0 2.12,-0.966 2.12,-2.499 l 0,-0.346 -3.485,0"
         inkscape:connector-curvature="0"
         id="path58"
         style="fill:#231f20;fill-opacity:1;fill-rule:nonzero;stroke:none" /></g><g
       transform="translate(23.891,13.063)"
       id="g60"><path
         d="m 0.756,0 -0.7559,0 0,5.165 0.7559,0 0,-5.165 z M 0,0 z m 0.808,6.635 -0.8505,0 0,0.85 0.8505,0 0,-0.85 z"
         inkscape:connector-curvature="0"
         id="path62"
         style="fill:#231f20;fill-opacity:1;fill-rule:nonzero;stroke:none" /></g><g
       transform="translate(31.322,17.619)"
       id="g64"><path
         d="m 0,0 c -1.123,0 -1.301,-0.966 -1.301,-1.974 0,-1.008 0.178,-1.973 1.301,-1.973 1.124,0 1.292,0.965 1.292,1.973 C 1.292,-0.966 1.124,0 0,0 z M 1.418,-4.168 C 1.144,-4.44 0.683,-4.619 0.158,-4.619 c -0.567,0 -1.039,0.137 -1.459,0.682 l 0,-0.619 -0.756,0 0,7.474 0.756,0 0,-2.907 c 0.42,0.535 0.892,0.661 1.459,0.661 0.525,0 0.986,-0.179 1.26,-0.451 0.524,-0.526 0.63,-1.386 0.63,-2.195 0,-0.808 -0.106,-1.669 -0.63,-2.194"
         inkscape:connector-curvature="0"
         id="path66"
         style="fill:#231f20;fill-opacity:1;fill-rule:nonzero;stroke:none" /></g><g
       transform="translate(38.085,16.874)"
       id="g68"><path
         d="M 0,0 C -0.199,0.472 -0.661,0.776 -1.207,0.776 -1.753,0.776 -2.215,0.472 -2.415,0 -2.53,-0.284 -2.551,-0.442 -2.572,-0.862 l 2.729,0 C 0.137,-0.442 0.115,-0.284 0,0 z m -2.572,-1.428 c 0,-1.134 0.536,-1.785 1.522,-1.785 0.599,0 0.946,0.179 1.355,0.588 l 0.514,-0.451 c -0.525,-0.525 -1.007,-0.798 -1.89,-0.798 -1.365,0 -2.257,0.819 -2.257,2.645 0,1.669 0.808,2.646 2.121,2.646 1.333,0 2.12,-0.966 2.12,-2.499 l 0,-0.346 -3.485,0"
         inkscape:connector-curvature="0"
         id="path70"
         style="fill:#231f20;fill-opacity:1;fill-rule:nonzero;stroke:none" /></g><g
       transform="translate(42.107,13.063)"
       id="g72"><path
         d="m 0,0 c -0.882,0 -1.322,0.619 -1.322,1.386 l 0,3.17 -0.652,0 0,0.577 0.652,0 0,1.617 0.756,0 0,-1.617 1.101,0 0,-0.577 -1.101,0 0,-3.149 c 0,-0.473 0.219,-0.756 0.703,-0.756 l 0.398,0 L 0.535,0 0,0"
         inkscape:connector-curvature="0"
         id="path74"
         style="fill:#231f20;fill-opacity:1;fill-rule:nonzero;stroke:none" /></g><g
       transform="translate(47.085,17.241)"
       id="g76"><path
         d="m 0,0 c -0.284,0.283 -0.493,0.378 -0.893,0.378 -0.755,0 -1.239,-0.599 -1.239,-1.386 l 0,-3.17 -0.756,0 0,5.165 0.756,0 0,-0.63 c 0.284,0.43 0.851,0.693 1.449,0.693 0.494,0 0.871,-0.115 1.239,-0.483 L 0,0"
         inkscape:connector-curvature="0"
         id="path78"
         style="fill:#231f20;fill-opacity:1;fill-rule:nonzero;stroke:none" /></g><g
       transform="translate(51.357,16.874)"
       id="g80"><path
         d="M 0,0 C -0.199,0.472 -0.661,0.776 -1.207,0.776 -1.753,0.776 -2.215,0.472 -2.414,0 -2.53,-0.284 -2.551,-0.442 -2.572,-0.862 l 2.729,0 C 0.137,-0.442 0.115,-0.284 0,0 z m -2.572,-1.428 c 0,-1.134 0.535,-1.785 1.522,-1.785 0.599,0 0.945,0.179 1.355,0.588 l 0.513,-0.451 c -0.524,-0.525 -1.007,-0.798 -1.888,-0.798 -1.365,0 -2.258,0.819 -2.258,2.645 0,1.669 0.808,2.646 2.121,2.646 1.333,0 2.12,-0.966 2.12,-2.499 l 0,-0.346 -3.485,0"
         inkscape:connector-curvature="0"
         id="path82"
         style="fill:#231f20;fill-opacity:1;fill-rule:nonzero;stroke:none" /></g><g
       transform="translate(4.0977,0.062988)"
       id="g84"><path
         d="m 0,0 -0.6719,0 -1.8896,5.165 0.8193,0 1.4063,-4.147 1.4179,4.147 0.8184,0 L 0,0"
         inkscape:connector-curvature="0"
         id="path86"
         style="fill:#231f20;fill-opacity:1;fill-rule:nonzero;stroke:none" /></g><g
       id="g88"><g
         clip-path="url(#clipPath92)"
         id="g90"><g
           transform="translate(10.051,3.874)"
           id="g96"><path
             d="M 0,0 C -0.1992,0.472 -0.6611,0.776 -1.2071,0.776 -1.753,0.776 -2.2149,0.472 -2.4141,0 -2.5303,-0.284 -2.5508,-0.442 -2.5723,-0.862 l 2.7293,0 C 0.137,-0.442 0.115,-0.284 0,0 z m -2.5723,-1.428 c 0,-1.134 0.5352,-1.785 1.5225,-1.785 0.5986,0 0.9443,0.179 1.3548,0.588 l 0.513,-0.451 c -0.524,-0.525 -1.0075,-0.798 -1.8883,-0.798 -1.3653,0 -2.2578,0.819 -2.2578,2.645 0,1.669 0.8085,2.646 2.121,2.646 1.3331,0 2.1201,-0.966 2.1201,-2.499 l 0,-0.346 -3.4853,0"
             inkscape:connector-curvature="0"
             id="path98"
             style="fill:#231f20;fill-opacity:1;fill-rule:nonzero;stroke:none" /></g></g></g><g
       transform="translate(15.512,4.241)"
       id="g100"><path
         d="m 0,0 c -0.283,0.283 -0.494,0.378 -0.893,0.378 -0.755,0 -1.238,-0.599 -1.238,-1.386 l 0,-3.17 -0.756,0 0,5.165 0.756,0 0,-0.63 c 0.283,0.43 0.85,0.693 1.448,0.693 0.494,0 0.871,-0.115 1.24,-0.483 L 0,0"
         inkscape:connector-curvature="0"
         id="path102"
         style="fill:#231f20;fill-opacity:1;fill-rule:nonzero;stroke:none" /></g><g
       id="g104"><g
         clip-path="url(#clipPath108)"
         id="g106"><g
           transform="translate(18.525,4.619)"
           id="g112"><path
             d="m 0,0 c -1.123,0 -1.302,-0.966 -1.302,-1.974 0,-1.008 0.179,-1.973 1.302,-1.973 1.123,0 1.291,0.965 1.291,1.973 C 1.291,-0.966 1.123,0 0,0 z m 1.302,-4.556 0,0.619 c -0.42,-0.545 -0.904,-0.682 -1.47,-0.682 -0.525,0 -0.986,0.179 -1.26,0.451 -0.525,0.525 -0.63,1.386 -0.63,2.194 0,0.809 0.105,1.669 0.63,2.195 0.274,0.272 0.735,0.451 1.26,0.451 0.566,0 1.039,-0.126 1.459,-0.661 l 0,2.907 0.756,0 0,-7.474 -0.745,0"
             inkscape:connector-curvature="0"
             id="path114"
             style="fill:#231f20;fill-opacity:1;fill-rule:nonzero;stroke:none" /></g></g></g><g
       transform="translate(14.694,109.381)"
       id="g116"><path
         d="m 0,0 29.404,0 0,-29.407 L 0,-29.407 0,0 z M 29.404,14.694 0,14.694 C -8.1171,14.694 -14.694,8.116 -14.694,0 l 0,-29.406 c 0,-8.115 6.5769,-14.693 14.694,-14.693 l 29.404,0 c 8.115,0 14.695,6.578 14.695,14.693 l 0,29.406 c 0,8.116 -6.58,14.694 -14.695,14.694"
         inkscape:connector-curvature="0"
         id="path118"
         style="fill:#214ca1;fill-opacity:1;fill-rule:nonzero;stroke:none" /></g><g
       transform="translate(29.299,106.838)"
       id="g120"><path
         d="m 0,0 c -6.661,0 -12.059,-5.402 -12.059,-12.062 0,-6.661 5.398,-12.059 12.059,-12.059 6.662,0 12.059,5.398 12.059,12.059 C 12.059,-5.402 6.662,0 0,0"
         inkscape:connector-curvature="0"
         id="path122"
         style="fill:#214ca1;fill-opacity:1;fill-rule:nonzero;stroke:none" /></g><g
       transform="translate(6.3994,58.693)"
       id="g124"><path
         d="m 0,0 6.423,-9.336 0,7.183 -0.02,1.708 -1.93,0 0,0.445 4.137,0 0,-0.445 -1.595,0 -0.02,-1.708 0,-11.117 -0.295,-0.093 -8.6111,12.527 0,-10.059 0.0185,-1.763 1.9844,0 0,-0.445 -4.2852,0 0,0.445 1.708,0 0.0167,1.763 0,8.742 -0.0167,1.708 -1.708,0 0,0.445 L 0,0"
         inkscape:connector-curvature="0"
         id="path126"
         style="fill:#210e08;fill-opacity:1;fill-rule:nonzero;stroke:none" /></g><g
       transform="translate(27.817,58.693)"
       id="g128"><path
         d="m 0,0 0,-4.194 -0.558,0 c -0.055,0.649 -0.129,1.466 -0.705,2.43 -0.667,1.133 -1.577,1.189 -2.469,1.226 l -1.038,0 -0.019,-1.671 0,-8.556 0.019,-1.893 2.004,0 0,-0.445 -6.087,0 0,0.445 2.004,0 0.019,1.893 0,8.556 -0.019,1.671 -0.853,0 c -1.076,-0.019 -1.894,-0.019 -2.673,-1.262 -0.612,-0.985 -0.668,-1.763 -0.705,-2.394 l -0.537,0 0,4.194 L 0,0"
         inkscape:connector-curvature="0"
         id="path130"
         style="fill:#210e08;fill-opacity:1;fill-rule:nonzero;stroke:none" /></g><g
       transform="translate(33.087,58.693)"
       id="g132"><path
         d="m 0,0 6.423,-9.336 0,7.183 -0.02,1.708 -1.93,0 0,0.445 4.139,0 0,-0.445 -1.596,0 -0.019,-1.708 0,-11.117 -0.297,-0.093 -8.611,12.527 0,-10.059 0.019,-1.763 1.985,0 0,-0.445 -4.286,0 0,0.445 1.707,0 0.018,1.763 0,8.742 -0.018,1.708 -1.707,0 0,0.445 L 0,0"
         inkscape:connector-curvature="0"
         id="path134"
         style="fill:#210e08;fill-opacity:1;fill-rule:nonzero;stroke:none" /></g><g
       transform="translate(48.905,58.693)"
       id="g136"><path
         d="m 0,0 0,-0.445 -1.838,0 -0.019,-1.578 0,-7.089 c 0.019,-1.838 0.056,-3.583 3.508,-3.583 3.49,0 3.712,1.523 3.768,3.174 l 0,7.498 -0.018,1.578 -1.875,0 0,0.445 4.101,0 0,-0.445 -1.614,0 -0.018,-1.578 0,-6.756 c -0.019,-2.432 -0.038,-4.51 -4.845,-4.51 -0.686,0 -2.319,0.075 -3.359,0.501 -1.651,0.705 -1.689,2.154 -1.707,3.935 l 0,6.83 -0.019,1.578 -1.595,0 L -5.53,0 0,0"
         inkscape:connector-curvature="0"
         id="path138"
         style="fill:#210e08;fill-opacity:1;fill-rule:nonzero;stroke:none" /></g></g></svg>